<svg width="86" height="56" viewBox="0 0 86 56" fill="none" xmlns="http://www.w3.org/2000/svg">
<rect x="0.5" y="0.5" width="85" height="55" rx="7.5" fill="#111012"/>
<rect x="0.5" y="0.5" width="85" height="55" rx="7.5" stroke="#111012"/>
<path d="M17.382 39V19.096L18.79 20.184H12.806V15.64H22.598V39H17.382ZM37.6615 39.608C35.8055 39.608 34.2162 39.3093 32.8935 38.712C31.5708 38.0933 30.4935 37.2613 29.6615 36.216C28.8508 35.1707 28.2428 33.9653 27.8375 32.6C27.4535 31.2133 27.2615 29.752 27.2615 28.216V26.392C27.2615 24.2587 27.6348 22.328 28.3815 20.6C29.1282 18.872 30.2695 17.496 31.8055 16.472C33.3415 15.448 35.2935 14.936 37.6615 14.936C40.0295 14.936 41.9708 15.448 43.4855 16.472C45.0215 17.496 46.1628 18.872 46.9095 20.6C47.6562 22.328 48.0295 24.2587 48.0295 26.392V28.216C48.0295 29.752 47.8268 31.2133 47.4215 32.6C47.0375 33.9653 46.4295 35.1707 45.5975 36.216C44.7868 37.2613 43.7202 38.0933 42.3975 38.712C41.0962 39.3093 39.5175 39.608 37.6615 39.608ZM37.6615 34.776C39.3895 34.776 40.6695 34.1787 41.5015 32.984C42.3548 31.768 42.7815 29.8907 42.7815 27.352C42.7815 24.664 42.3442 22.7333 41.4695 21.56C40.6162 20.3653 39.3468 19.768 37.6615 19.768C35.9335 19.768 34.6428 20.3653 33.7895 21.56C32.9362 22.7333 32.5095 24.6427 32.5095 27.288C32.5095 29.848 32.9255 31.736 33.7575 32.952C34.6108 34.168 35.9122 34.776 37.6615 34.776ZM62.0678 39.608C60.2118 39.608 58.6224 39.3093 57.2998 38.712C55.9771 38.0933 54.8998 37.2613 54.0677 36.216C53.2571 35.1707 52.6491 33.9653 52.2438 32.6C51.8598 31.2133 51.6678 29.752 51.6678 28.216V26.392C51.6678 24.2587 52.0411 22.328 52.7878 20.6C53.5344 18.872 54.6758 17.496 56.2118 16.472C57.7478 15.448 59.6998 14.936 62.0678 14.936C64.4358 14.936 66.3771 15.448 67.8918 16.472C69.4278 17.496 70.5691 18.872 71.3158 20.6C72.0624 22.328 72.4358 24.2587 72.4358 26.392V28.216C72.4358 29.752 72.2331 31.2133 71.8278 32.6C71.4438 33.9653 70.8358 35.1707 70.0038 36.216C69.1931 37.2613 68.1264 38.0933 66.8038 38.712C65.5024 39.3093 63.9238 39.608 62.0678 39.608ZM62.0678 34.776C63.7958 34.776 65.0758 34.1787 65.9078 32.984C66.7611 31.768 67.1878 29.8907 67.1878 27.352C67.1878 24.664 66.7504 22.7333 65.8758 21.56C65.0224 20.3653 63.7531 19.768 62.0678 19.768C60.3398 19.768 59.0491 20.3653 58.1958 21.56C57.3424 22.7333 56.9158 24.6427 56.9158 27.288C56.9158 29.848 57.3318 31.736 58.1638 32.952C59.0171 34.168 60.3184 34.776 62.0678 34.776Z" fill="white"/>
</svg>
