<svg width="86" height="56" viewBox="0 0 86 56" fill="none" xmlns="http://www.w3.org/2000/svg">
<rect x="1" y="1" width="84" height="54" rx="7" fill="#24222E"/>
<rect x="1" y="1" width="84" height="54" rx="7" stroke="url(#paint0_linear_3249_266)" stroke-width="2"/>
<path d="M14.382 39V19.096L15.79 20.184H9.806V15.64H19.598V39H14.382ZM34.6615 39.608C32.8055 39.608 31.2162 39.3093 29.8935 38.712C28.5708 38.0933 27.4935 37.2613 26.6615 36.216C25.8508 35.1707 25.2428 33.9653 24.8375 32.6C24.4535 31.2133 24.2615 29.752 24.2615 28.216V26.392C24.2615 24.2587 24.6348 22.328 25.3815 20.6C26.1282 18.872 27.2695 17.496 28.8055 16.472C30.3415 15.448 32.2935 14.936 34.6615 14.936C37.0295 14.936 38.9708 15.448 40.4855 16.472C42.0215 17.496 43.1628 18.872 43.9095 20.6C44.6562 22.328 45.0295 24.2587 45.0295 26.392V28.216C45.0295 29.752 44.8268 31.2133 44.4215 32.6C44.0375 33.9653 43.4295 35.1707 42.5975 36.216C41.7868 37.2613 40.7202 38.0933 39.3975 38.712C38.0962 39.3093 36.5175 39.608 34.6615 39.608ZM34.6615 34.776C36.3895 34.776 37.6695 34.1787 38.5015 32.984C39.3548 31.768 39.7815 29.8907 39.7815 27.352C39.7815 24.664 39.3442 22.7333 38.4695 21.56C37.6162 20.3653 36.3468 19.768 34.6615 19.768C32.9335 19.768 31.6428 20.3653 30.7895 21.56C29.9362 22.7333 29.5095 24.6427 29.5095 27.288C29.5095 29.848 29.9255 31.736 30.7575 32.952C31.6108 34.168 32.9122 34.776 34.6615 34.776ZM59.0678 39.608C57.2118 39.608 55.6224 39.3093 54.2998 38.712C52.9771 38.0933 51.8998 37.2613 51.0677 36.216C50.2571 35.1707 49.6491 33.9653 49.2438 32.6C48.8598 31.2133 48.6678 29.752 48.6678 28.216V26.392C48.6678 24.2587 49.0411 22.328 49.7878 20.6C50.5344 18.872 51.6758 17.496 53.2118 16.472C54.7478 15.448 56.6998 14.936 59.0678 14.936C61.4358 14.936 63.3771 15.448 64.8918 16.472C66.4278 17.496 67.5691 18.872 68.3158 20.6C69.0624 22.328 69.4358 24.2587 69.4358 26.392V28.216C69.4358 29.752 69.2331 31.2133 68.8278 32.6C68.4438 33.9653 67.8358 35.1707 67.0038 36.216C66.1931 37.2613 65.1264 38.0933 63.8038 38.712C62.5024 39.3093 60.9238 39.608 59.0678 39.608ZM59.0678 34.776C60.7958 34.776 62.0758 34.1787 62.9078 32.984C63.7611 31.768 64.1878 29.8907 64.1878 27.352C64.1878 24.664 63.7504 22.7333 62.8758 21.56C62.0224 20.3653 60.7531 19.768 59.0678 19.768C57.3398 19.768 56.0491 20.3653 55.1958 21.56C54.3424 22.7333 53.9158 24.6427 53.9158 27.288C53.9158 29.848 54.3318 31.736 55.1638 32.952C56.0171 34.168 57.3184 34.776 59.0678 34.776Z" fill="white"/>
<g clip-path="url(#clip0_3249_266)">
<rect x="75.5" y="13.5" width="2" height="29" fill="white"/>
</g>
<defs>
<linearGradient id="paint0_linear_3249_266" x1="0" y1="0" x2="86.8452" y2="2.92747" gradientUnits="userSpaceOnUse">
<stop stop-color="#77C0AF"/>
<stop offset="0.15" stop-color="#D1DC97"/>
<stop offset="0.325" stop-color="#E9A9B3"/>
<stop offset="0.665" stop-color="#D586E0"/>
<stop offset="0.855" stop-color="#91A1FA"/>
</linearGradient>
<clipPath id="clip0_3249_266">
<rect x="75.5" y="13.5" width="2" height="29" rx="1" fill="white"/>
</clipPath>
</defs>
</svg>
