<svg width="484" height="58" viewBox="0 0 484 58" fill="none" xmlns="http://www.w3.org/2000/svg">
<rect x="0.800049" y="0.800049" width="482" height="56" rx="8" fill="#111012"/>
<rect x="0.800049" y="0.800049" width="482" height="56" rx="8" stroke="url(#paint0_linear_3275_502)" stroke-width="1.6"/>
<path d="M139.644 30.5813V30.3547H142.089V30.5422C142.084 31.0995 142.261 31.5188 142.62 31.8C142.98 32.0761 143.477 32.2141 144.113 32.2141C144.748 32.2141 145.235 32.0839 145.573 31.8235C145.917 31.5631 146.089 31.2193 146.089 30.7922C146.089 30.3443 145.925 30.0006 145.597 29.761C145.274 29.5162 144.563 29.2506 143.464 28.9641C142.271 28.6568 141.365 28.2349 140.745 27.6985C140.126 27.162 139.816 26.4303 139.816 25.5032C139.816 24.498 140.196 23.6959 140.956 23.0969C141.722 22.498 142.751 22.1985 144.042 22.1985C145.329 22.1985 146.36 22.5084 147.136 23.1282C147.917 23.7428 148.308 24.5631 148.308 25.5891V25.8H145.902V25.6282C145.902 25.1438 145.745 24.7558 145.433 24.4641C145.126 24.1724 144.667 24.0266 144.058 24.0266C143.443 24.0266 142.99 24.1438 142.698 24.3782C142.412 24.6073 142.269 24.9198 142.269 25.3157C142.269 25.7063 142.425 26.0032 142.738 26.2063C143.05 26.4094 143.756 26.6568 144.855 26.9485C146.027 27.2662 146.93 27.6985 147.566 28.2454C148.206 28.7922 148.529 29.5813 148.534 30.6125C148.534 31.6907 148.131 32.5292 147.323 33.1282C146.516 33.7271 145.448 34.0266 144.12 34.0266C142.803 34.0266 141.727 33.7323 140.894 33.1438C140.06 32.5553 139.644 31.7011 139.644 30.5813ZM149.792 28.4641V27.761C149.792 25.9433 150.264 24.5631 151.206 23.6204C152.154 22.6724 153.373 22.1985 154.863 22.1985C156.352 22.1985 157.573 22.6724 158.527 23.6204C159.48 24.5631 159.956 25.9433 159.956 27.761V28.4641C159.956 30.2818 159.48 31.6646 158.527 32.6125C157.573 33.5553 156.352 34.0266 154.863 34.0266C153.373 34.0266 152.154 33.5553 151.206 32.6125C150.264 31.6646 149.792 30.2818 149.792 28.4641ZM152.261 28.7141C152.261 29.886 152.495 30.7584 152.964 31.3313C153.438 31.899 154.071 32.1829 154.863 32.1829C155.659 32.1829 156.295 31.899 156.769 31.3313C157.248 30.7584 157.488 29.886 157.488 28.7141V27.5188C157.488 26.3417 157.248 25.4693 156.769 24.9016C156.295 24.3287 155.659 24.0422 154.863 24.0422C154.071 24.0422 153.438 24.3287 152.964 24.9016C152.495 25.4693 152.261 26.3417 152.261 27.5188V28.7141ZM161.917 33.8V22.425H166.081C167.399 22.425 168.425 22.7402 169.159 23.3704C169.899 24.0006 170.269 24.8808 170.269 26.011C170.269 27.1568 169.896 28.0553 169.152 28.7063C168.412 29.3521 167.386 29.675 166.073 29.675H164.331V33.8H161.917ZM164.331 27.9094H165.972C166.665 27.9094 167.152 27.7402 167.433 27.4016C167.714 27.0631 167.857 26.6099 167.863 26.0422C167.863 25.4745 167.719 25.0292 167.433 24.7063C167.152 24.3834 166.665 24.2219 165.972 24.2219H164.331V27.9094ZM168.113 33.8L165.464 28.5657L167.988 28.425L170.808 33.8H168.113ZM170.495 24.261V22.425H179.644V24.261H176.277V33.8H173.863V24.261H170.495ZM180.995 33.8V22.425H188.636V24.261H183.386V27.05H187.933V28.8469H183.386V31.9719H188.722V33.8H180.995ZM189.003 33.8L193.292 22.3704H195.839L200.191 33.8H197.605L194.714 25.7766C194.652 25.5995 194.6 25.4303 194.558 25.2688C194.521 25.1073 194.488 24.9459 194.456 24.7844H194.394C194.368 24.9459 194.334 25.1073 194.292 25.2688C194.256 25.4303 194.206 25.5995 194.144 25.7766L191.253 33.8H189.003ZM191.441 31.3L191.988 29.5266H197.019L197.566 31.3H191.441ZM201.167 33.8V22.425H205.331C206.649 22.425 207.675 22.7402 208.409 23.3704C209.149 24.0006 209.519 24.8808 209.519 26.011C209.519 27.1568 209.146 28.0553 208.402 28.7063C207.662 29.3521 206.636 29.675 205.323 29.675H203.581V33.8H201.167ZM203.581 27.9094H205.222C205.915 27.9094 206.402 27.7402 206.683 27.4016C206.964 27.0631 207.107 26.6099 207.113 26.0422C207.113 25.4745 206.969 25.0292 206.683 24.7063C206.402 24.3834 205.915 24.2219 205.222 24.2219H203.581V27.9094ZM207.363 33.8L204.714 28.5657L207.238 28.425L210.058 33.8H207.363ZM215.261 33.8V22.425H217.823L221.855 29.4485C221.943 29.6047 222.019 29.7532 222.081 29.8938C222.149 30.0344 222.212 30.1855 222.269 30.3469H222.331C222.326 30.175 222.321 30.011 222.316 29.8547C222.316 29.6933 222.316 29.524 222.316 29.3469V22.425H224.402V33.8H221.784L217.792 26.8391C217.704 26.6777 217.626 26.524 217.558 26.3782C217.495 26.2271 217.435 26.0709 217.378 25.9094H217.323C217.334 26.0865 217.339 26.2636 217.339 26.4407C217.344 26.6178 217.347 26.7922 217.347 26.9641V33.8H215.261ZM226.355 28.4641V27.761C226.355 25.9433 226.826 24.5631 227.769 23.6204C228.717 22.6724 229.935 22.1985 231.425 22.1985C232.915 22.1985 234.136 22.6724 235.089 23.6204C236.042 24.5631 236.519 25.9433 236.519 27.761V28.4641C236.519 30.2818 236.042 31.6646 235.089 32.6125C234.136 33.5553 232.915 34.0266 231.425 34.0266C229.935 34.0266 228.717 33.5553 227.769 32.6125C226.826 31.6646 226.355 30.2818 226.355 28.4641ZM228.823 28.7141C228.823 29.886 229.058 30.7584 229.527 31.3313C230.001 31.899 230.633 32.1829 231.425 32.1829C232.222 32.1829 232.857 31.899 233.331 31.3313C233.81 30.7584 234.05 29.886 234.05 28.7141V27.5188C234.05 26.3417 233.81 25.4693 233.331 24.9016C232.857 24.3287 232.222 24.0422 231.425 24.0422C230.633 24.0422 230.001 24.3287 229.527 24.9016C229.058 25.4693 228.823 26.3417 228.823 27.5188V28.7141ZM236.98 22.425H239.597L242.339 30.136C242.391 30.2766 242.43 30.4094 242.456 30.5344C242.488 30.6542 242.521 30.7948 242.558 30.9563H242.62C242.657 30.7948 242.691 30.6542 242.722 30.5344C242.758 30.4094 242.8 30.2766 242.847 30.136L245.644 22.425H247.948L243.753 33.8391H241.191L236.98 22.425ZM247.222 33.8L251.511 22.3704H254.058L258.409 33.8H255.823L252.933 25.7766C252.87 25.5995 252.818 25.4303 252.777 25.2688C252.74 25.1073 252.706 24.9459 252.675 24.7844H252.613C252.587 24.9459 252.553 25.1073 252.511 25.2688C252.475 25.4303 252.425 25.5995 252.363 25.7766L249.472 33.8H247.222ZM249.659 31.3L250.206 29.5266H255.238L255.784 31.3H249.659ZM259.386 33.8V22.425H262.488L265.175 29.7532C265.243 29.9303 265.297 30.0969 265.339 30.2532C265.386 30.4094 265.425 30.5839 265.456 30.7766H265.511C265.542 30.5839 265.581 30.4094 265.628 30.2532C265.675 30.0969 265.73 29.9303 265.792 29.7532L268.495 22.425H271.636V33.8H269.253V26.5657C269.253 26.3886 269.256 26.1959 269.261 25.9875C269.271 25.774 269.284 25.5813 269.3 25.4094H269.238C269.212 25.5813 269.172 25.774 269.12 25.9875C269.073 26.1959 269.019 26.3886 268.956 26.5657L266.3 33.8H264.323L261.683 26.5657C261.62 26.3886 261.563 26.1959 261.511 25.9875C261.464 25.774 261.425 25.5813 261.394 25.4094H261.331C261.352 25.5813 261.365 25.774 261.37 25.9875C261.376 26.1959 261.378 26.3886 261.378 26.5657V33.8H259.386ZM274.011 33.8V22.425H281.652V24.261H276.402V27.05H280.948V28.8469H276.402V31.9719H281.738V33.8H274.011ZM283.417 33.8V22.425H285.98L290.011 29.4485C290.1 29.6047 290.175 29.7532 290.238 29.8938C290.305 30.0344 290.368 30.1855 290.425 30.3469H290.488C290.482 30.175 290.477 30.011 290.472 29.8547C290.472 29.6933 290.472 29.524 290.472 29.3469V22.425H292.558V33.8H289.941L285.948 26.8391C285.86 26.6777 285.782 26.524 285.714 26.3782C285.652 26.2271 285.592 26.0709 285.534 25.9094H285.48C285.49 26.0865 285.495 26.2636 285.495 26.4407C285.501 26.6178 285.503 26.7922 285.503 26.9641V33.8H283.417ZM293.808 24.261V22.425H302.956V24.261H299.589V33.8H297.175V24.261H293.808ZM304.308 33.8V22.425H311.948V24.261H306.698V27.05H311.245V28.8469H306.698V31.9719H312.034V33.8H304.308Z" fill="white"/>
<path fill-rule="evenodd" clip-rule="evenodd" d="M332.8 19.55C327.691 19.55 323.55 23.6914 323.55 28.8C323.55 33.9086 327.691 38.05 332.8 38.05C337.909 38.05 342.05 33.9086 342.05 28.8C342.05 28.3858 342.386 28.05 342.8 28.05C343.214 28.05 343.55 28.3858 343.55 28.8C343.55 34.7371 338.737 39.55 332.8 39.55C326.863 39.55 322.05 34.7371 322.05 28.8C322.05 22.863 326.863 18.05 332.8 18.05C335.594 18.05 338.139 19.1164 340.05 20.8627V19.3C340.05 18.8858 340.386 18.55 340.8 18.55C341.214 18.55 341.55 18.8858 341.55 19.3V22.8C341.55 23.2143 341.214 23.55 340.8 23.55H337.3C336.886 23.55 336.55 23.2143 336.55 22.8C336.55 22.3858 336.886 22.05 337.3 22.05H339.125C337.47 20.4988 335.246 19.55 332.8 19.55Z" fill="white"/>
<path d="M336.745 29.1577C336.569 29.7844 335.733 30.2273 334.063 31.1131C332.448 31.9693 331.641 32.3975 330.99 32.2254C330.721 32.1542 330.476 32.0191 330.278 31.8329C329.8 31.3827 329.8 30.5094 329.8 28.7629C329.8 27.0163 329.8 26.1431 330.278 25.6929C330.476 25.5067 330.721 25.3716 330.99 25.3005C331.641 25.1284 332.448 25.5565 334.063 26.4128C335.733 27.2985 336.569 27.7414 336.745 28.3681C336.818 28.6268 336.818 28.899 336.745 29.1577Z" stroke="white" stroke-width="1.5" stroke-linecap="round" stroke-linejoin="round"/>
<defs>
<linearGradient id="paint0_linear_3275_502" x1="0.800049" y1="0.800049" x2="471.296" y2="89.6898" gradientUnits="userSpaceOnUse">
<stop stop-color="#77C0AF"/>
<stop offset="0.15" stop-color="#D1DC97"/>
<stop offset="0.325" stop-color="#E9A9B3"/>
<stop offset="0.665" stop-color="#D586E0"/>
<stop offset="0.855" stop-color="#91A1FA"/>
</linearGradient>
</defs>
</svg>
